<svg width="71" height="52" viewBox="0 0 71 52" fill="none" xmlns="http://www.w3.org/2000/svg">
<path fill-rule="evenodd" clip-rule="evenodd" d="M35.2871 20C40.2577 20 44.2871 15.9706 44.2871 11C44.2871 6.02944 40.2577 2 35.2871 2C30.3165 2 26.2871 6.02944 26.2871 11C26.2871 15.9706 30.3165 20 35.2871 20ZM40.8031 20.5191C44.0822 18.6149 46.2871 15.0649 46.2871 11C46.2871 4.92487 41.3622 0 35.2871 0C29.212 0 24.2871 4.92487 24.2871 11C24.2871 15.0649 26.4919 18.6148 29.7709 20.519C26.9311 21.061 24.2441 22.0135 21.7804 23.31C22.1096 22.2653 22.2871 21.1534 22.2871 20C22.2871 13.9249 17.3622 9 11.2871 9C5.21198 9 0.287109 13.9249 0.287109 20C0.287109 23.9136 2.33092 27.3499 5.40942 29.2997C3.01536 30.0878 1.28711 32.3421 1.28711 35V49C1.28711 50.6569 2.63026 52 4.28711 52H23.2871C24.944 52 26.2871 50.6569 26.2871 49V47.2597L26.2871 47.2567L26.2872 47.2564L26.2877 47.2554L26.2884 47.2544C26.2921 47.2486 26.3046 47.2328 26.3318 47.2173C26.3934 47.1823 26.4488 47.189 26.4779 47.2036C28.5523 48.2442 31.8106 49.439 35.2871 49.439C38.7636 49.439 42.0219 48.2442 44.0963 47.2036C44.1254 47.189 44.1809 47.1823 44.2424 47.2173C44.2696 47.2328 44.2821 47.2486 44.2858 47.2544L44.287 47.2562L44.2871 47.2571L44.2871 47.2583L44.2871 47.2597V49C44.2871 50.6569 45.6303 52 47.2871 52H66.2871C67.944 52 69.2871 50.6569 69.2871 49V35C69.2871 32.3421 67.5589 30.0878 65.1648 29.2997C68.2433 27.3499 70.2871 23.9136 70.2871 20C70.2871 13.9249 65.3622 9 59.2871 9C53.212 9 48.2871 13.9249 48.2871 20C48.2871 21.1536 48.4647 22.2656 48.794 23.3104C46.3302 22.0138 43.6431 21.0612 40.8031 20.5191ZM50.5858 26.7305C46.2867 23.7556 41.0037 22 35.2868 22C29.5705 22 24.2881 23.7552 19.9892 26.7294C19.3155 27.5994 18.5141 28.3656 17.6133 29H19.8371C22.3522 29 24.4506 30.5849 25.7281 32.4833C27.6248 35.3022 30.8354 38.2195 35.2871 38.2195C39.7388 38.2195 42.9494 35.3022 44.8462 32.4833C46.1236 30.5849 48.222 29 50.7371 29H52.9609C52.0605 28.3659 51.2594 27.6 50.5858 26.7305ZM11.2871 29C16.2577 29 20.2871 24.9706 20.2871 20C20.2871 15.0294 16.2577 11 11.2871 11C6.31655 11 2.28711 15.0294 2.28711 20C2.28711 24.9706 6.31655 29 11.2871 29ZM59.2871 29C64.2577 29 68.2871 24.9706 68.2871 20C68.2871 15.0294 64.2577 11 59.2871 11C54.3165 11 50.2871 15.0294 50.2871 20C50.2871 24.9706 54.3165 29 59.2871 29ZM59.2871 31H50.7371C49.0986 31 47.5469 32.0521 46.5055 33.5998C44.4352 36.6765 40.6946 40.2195 35.2871 40.2195C29.8796 40.2195 26.139 36.6765 24.0687 33.5998C23.0273 32.0521 21.4756 31 19.8371 31H11.2871H7.28711C5.07797 31 3.28711 32.7909 3.28711 35V49C3.28711 49.5523 3.73482 50 4.28711 50H23.2871C23.8394 50 24.2871 49.5523 24.2871 49V47.2597C24.2871 45.6226 26.073 44.7629 27.3747 45.4159C29.2899 46.3767 32.2324 47.439 35.2871 47.439C38.3419 47.439 41.2843 46.3767 43.1995 45.4159C44.5012 44.7629 46.2871 45.6226 46.2871 47.2597V49C46.2871 49.5523 46.7348 50 47.2871 50H66.2871C66.8394 50 67.2871 49.5523 67.2871 49V35C67.2871 32.7909 65.4962 31 63.2871 31H59.2871Z" fill="url(#paint0_linear_4534_307)"/>
<defs>
<linearGradient id="paint0_linear_4534_307" x1="35.2871" y1="0" x2="35.2871" y2="52" gradientUnits="userSpaceOnUse">
<stop stop-color="#009FDA"/>
<stop offset="1" stop-color="#004E9B"/>
</linearGradient>
</defs>
</svg>
